<svg width="700" height="1050" viewBox="0 0 700 1050" xmlns="http://www.w3.org/2000/svg" role="img">
<title>eRailInfo scrambled dense multilingual pattern background (light theme)</title>
<defs><style>
.bgrect{fill:#f5f1e8}
.wm{fill:#000;font-family:Georgia,serif;font-style:italic;font-weight:700;font-size:7.5px}
.wm2{fill:#000;font-family:'Noto Sans',sans-serif;font-weight:700;font-size:7px}
.d{fill:none;stroke:#000;stroke-width:0.9;stroke-linecap:round;stroke-linejoin:round}
</style></defs>
<rect class="bgrect" x="0" y="0" width="700" height="1050"/>
<g id="mtn"><path class="d" d="M0 7 L4.5 0 L9 7 Z"/></g>
<g id="tun"><path class="d" d="M0 9 A9 9 0 0 1 18 9"/><line class="d" x1="0" y1="9" x2="0" y2="13"/><line class="d" x1="18" y1="9" x2="18" y2="13"/></g>
<g id="sig"><line class="d" x1="4" y1="0" x2="4" y2="8"/><line class="d" x1="0" y1="10" x2="8" y2="10"/></g>
<g id="pin"><rect class="d" x="0" y="0" width="7" height="10" rx="1"/><circle class="d" cx="3.5" cy="3" r="1"/></g>
<g id="cld"><path class="d" d="M0 5 Q0 1 4 1 Q5 -1.5 8 0 Q11 -1 11 3 Q14 3 13 6 L1 6 Z"/></g>
<g id="trk"><path class="d" d="M0 5 Q5 0 10 5 Q15 10 20 5"/></g>
<g id="brg"><path class="d" d="M0 7 A7 7 0 0 1 14 7"/><line class="d" x1="0" y1="7" x2="0" y2="10"/><line class="d" x1="14" y1="7" x2="14" y2="10"/></g>
<g id="tree"><line class="d" x1="3" y1="5" x2="3" y2="9"/><path class="d" d="M3 0 L0 5 L6 5 Z"/></g>
<text class="wm" x="15.6" y="11.5" transform="rotate(1.1 15.6 11.5)">eRailInfo</text>
<text class="wm2" x="66.6" y="12.2" transform="rotate(1.6 66.6 12.2)">इ-रेल-इन्फो</text>
<text class="wm2" x="131.8" y="8.9" transform="rotate(5.3 131.8 8.9)">铁路通</text>
<use href="#mtn" x="216.8" y="9.9" transform="rotate(5.6 221.3 13.4)"/>
<text class="wm" x="260.2" y="14.0" transform="rotate(4.3 260.2 14.0)">eRailInfo</text>
<text class="wm2" x="314.0" y="18.1" transform="rotate(-7.9 314.0 18.1)">إي ريل إينفو</text>
<text class="wm" x="380.1" y="13.5" transform="rotate(5.0 380.1 13.5)">eRailInfo</text>
<use href="#cld" x="458.0" y="14.6" transform="rotate(-4.8 465.0 17.6)"/>
<text class="wm2" x="530.9" y="19.9" transform="rotate(-4.0 530.9 19.9)">이레일인포</text>
<text class="wm" x="566.0" y="7.7" transform="rotate(3.7 566.0 7.7)">eRailInfo</text>
<use href="#tun" x="638.4" y="11.6" transform="rotate(-7.7 647.4 18.1)"/>
<use href="#mtn" x="695.6" y="17.9" transform="rotate(8.2 700.1 21.4)"/>
<use href="#brg" x="51.8" y="40.8" transform="rotate(-2.2 58.8 45.8)"/>
<use href="#trk" x="100.0" y="38.0" transform="rotate(3.1 110.0 43.0)"/>
<text class="wm2" x="160.5" y="37.9" transform="rotate(4.6 160.5 37.9)">イーレールインフォ</text>
<use href="#tree" x="229.5" y="41.3" transform="rotate(-7.9 232.5 45.8)"/>
<text class="wm2" x="285.5" y="36.1" transform="rotate(-5.6 285.5 36.1)">е-рейл-инфо</text>
<text class="wm" x="350.3" y="37.4" transform="rotate(-6.9 350.3 37.4)">eRailInfo</text>
<use href="#cld" x="446.9" y="34.3" transform="rotate(8.5 453.9 37.3)"/>
<use href="#tun" x="470.5" y="35.3" transform="rotate(8.9 479.5 41.8)"/>
<text class="wm2" x="533.1" y="47.3" transform="rotate(-8.8 533.1 47.3)">ई-रेल-इन्फो</text>
<use href="#pin" x="620.4" y="36.9" transform="rotate(-7.7 623.9 41.9)"/>
<text class="wm" x="660.7" y="49.3" transform="rotate(-2.3 660.7 49.3)">eRailInfo</text>
<text class="wm2" x="10.9" y="66.9" transform="rotate(1.3 10.9 66.9)">อีเรลอินโฟ</text>
<use href="#pin" x="100.1" y="65.9" transform="rotate(7.4 103.6 70.9)"/>
<text class="wm" x="136.7" y="70.2" transform="rotate(1.0 136.7 70.2)">eRailInfo</text>
<text class="wm2" x="190.0" y="65.7" transform="rotate(-7.6 190.0 65.7)">ای‌ریل‌اینفو</text>
<text class="wm" x="261.3" y="70.3" transform="rotate(-4.4 261.3 70.3)">eRailInfo</text>
<text class="wm2" x="315.7" y="72.3" transform="rotate(7.3 315.7 72.3)">ரயில்-தகவல்</text>
<text class="wm2" x="377.0" y="71.7" transform="rotate(8.6 377.0 71.7)">e-Bahninfo</text>
<text class="wm" x="438.9" y="67.4" transform="rotate(2.1 438.9 67.4)">eRailInfo</text>
<text class="wm2" x="500.2" y="70.6" transform="rotate(4.5 500.2 70.6)">э-рейл-инфо</text>
<use href="#cld" x="576.8" y="73.2" transform="rotate(-8.2 583.8 76.2)"/>
<use href="#tree" x="671.1" y="72.5" transform="rotate(-2.5 674.1 77.0)"/>
<text class="wm" x="687.8" y="64.6" transform="rotate(1.5 687.8 64.6)">eRailInfo</text>
<use href="#cld" x="73.5" y="94.3" transform="rotate(7.4 80.5 97.3)"/>
<text class="wm2" x="97.0" y="99.1" transform="rotate(-0.3 97.0 99.1)">demiryolu-bilgi</text>
<text class="wm" x="165.9" y="105.8" transform="rotate(-7.6 165.9 105.8)">eRailInfo</text>
<text class="wm2" x="233.1" y="106.7" transform="rotate(4.3 233.1 106.7)">ইরেলইনফো</text>
<text class="wm" x="291.6" y="108.4" transform="rotate(-2.7 291.6 108.4)">eRailInfo</text>
<text class="wm" x="355.0" y="107.8" transform="rotate(-1.5 355.0 107.8)">eRailInfo</text>
<text class="wm" x="411.8" y="103.3" transform="rotate(2.2 411.8 103.3)">eRailInfo</text>
<text class="wm" x="477.1" y="109.9" transform="rotate(-7.6 477.1 109.9)">eRailInfo</text>
<text class="wm2" x="532.3" y="105.8" transform="rotate(4.1 532.3 105.8)">इ-रेल-इन्फो</text>
<text class="wm2" x="626.7" y="95.3" transform="rotate(-1.1 626.7 95.3)">铁路通</text>
<text class="wm" x="662.6" y="101.7" transform="rotate(-8.5 662.6 101.7)">eRailInfo</text>
<use href="#tree" x="41.4" y="132.6" transform="rotate(3.6 44.4 137.1)"/>
<text class="wm2" x="66.0" y="126.3" transform="rotate(7.1 66.0 126.3)">إي ريل إينفو</text>
<text class="wm" x="137.5" y="129.5" transform="rotate(0.3 137.5 129.5)">eRailInfo</text>
<text class="wm2" x="197.5" y="130.5" transform="rotate(-0.0 197.5 130.5)">이레일인포</text>
<use href="#pin" x="293.4" y="128.6" transform="rotate(2.4 296.9 133.6)"/>
<text class="wm" x="315.7" y="131.9" transform="rotate(-3.3 315.7 131.9)">eRailInfo</text>
<text class="wm2" x="385.0" y="139.2" transform="rotate(6.3 385.0 139.2)">イーレールインフォ</text>
<use href="#tree" x="460.6" y="136.0" transform="rotate(-6.0 463.6 140.5)"/>
<text class="wm2" x="501.8" y="134.8" transform="rotate(-2.1 501.8 134.8)">е-рейл-инфо</text>
<text class="wm" x="569.9" y="129.1" transform="rotate(6.2 569.9 129.1)">eRailInfo</text>
<text class="wm2" x="626.1" y="134.9" transform="rotate(-4.0 626.1 134.9)">ई-रेल-इन्फो</text>
<use href="#mtn" x="714.8" y="130.1" transform="rotate(-2.6 719.3 133.6)"/>
<use href="#cld" x="44.5" y="156.3" transform="rotate(4.8 51.5 159.3)"/>
<use href="#tree" x="102.2" y="161.0" transform="rotate(2.3 105.2 165.5)"/>
<text class="wm" x="160.0" y="157.2" transform="rotate(-2.4 160.0 157.2)">eRailInfo</text>
<text class="wm2" x="226.7" y="166.1" transform="rotate(-4.4 226.7 166.1)">อีเรลอินโฟ</text>
<text class="wm" x="285.9" y="166.5" transform="rotate(-8.3 285.9 166.5)">eRailInfo</text>
<text class="wm2" x="345.0" y="169.9" transform="rotate(8.0 345.0 169.9)">ای‌ریل‌اینفو</text>
<use href="#pin" x="411.1" y="165.2" transform="rotate(6.3 414.6 170.2)"/>
<text class="wm" x="474.7" y="164.0" transform="rotate(-6.7 474.7 164.0)">eRailInfo</text>
<text class="wm2" x="532.9" y="168.1" transform="rotate(-2.2 532.9 168.1)">ரயில்-தகவல்</text>
<text class="wm2" x="596.7" y="164.4" transform="rotate(8.0 596.7 164.4)">e-Bahninfo</text>
<use href="#tun" x="662.7" y="162.1" transform="rotate(4.0 671.7 168.6)"/>
<text class="wm" x="10.8" y="196.7" transform="rotate(8.6 10.8 196.7)">eRailInfo</text>
<use href="#mtn" x="81.7" y="185.2" transform="rotate(7.4 86.2 188.7)"/>
<text class="wm2" x="130.6" y="191.8" transform="rotate(0.9 130.6 191.8)">э-рейл-инфо</text>
<use href="#tun" x="205.4" y="184.3" transform="rotate(5.6 214.4 190.8)"/>
<text class="wm" x="263.5" y="191.5" transform="rotate(3.4 263.5 191.5)">eRailInfo</text>
<text class="wm2" x="314.0" y="194.8" transform="rotate(7.2 314.0 194.8)">demiryolu-bilgi</text>
<text class="wm" x="383.3" y="195.0" transform="rotate(6.8 383.3 195.0)">eRailInfo</text>
<text class="wm2" x="447.6" y="197.3" transform="rotate(-1.1 447.6 197.3)">ইরেলইনফো</text>
<text class="wm" x="506.5" y="198.5" transform="rotate(-6.0 506.5 198.5)">eRailInfo</text>
<use href="#pin" x="576.3" y="185.7" transform="rotate(3.1 579.8 190.7)"/>
<text class="wm" x="630.3" y="190.6" transform="rotate(-4.1 630.3 190.6)">eRailInfo</text>
<use href="#brg" x="687.1" y="195.6" transform="rotate(-8.9 694.1 200.6)"/>
<text class="wm" x="45.1" y="223.0" transform="rotate(-1.8 45.1 223.0)">eRailInfo</text>
<text class="wm" x="97.8" y="222.6" transform="rotate(3.4 97.8 222.6)">eRailInfo</text>
<use href="#brg" x="169.8" y="219.7" transform="rotate(8.2 176.8 224.7)"/>
<use href="#tree" x="246.2" y="215.4" transform="rotate(-1.2 249.2 219.9)"/>
<use href="#cld" x="288.2" y="226.5" transform="rotate(-8.5 295.2 229.5)"/>
<use href="#pin" x="345.6" y="217.4" transform="rotate(-5.5 349.1 222.4)"/>
<text class="wm2" x="408.7" y="222.0" transform="rotate(-4.6 408.7 222.0)">इ-रेल-इन्फो</text>
<text class="wm2" x="494.1" y="225.5" transform="rotate(6.3 494.1 225.5)">铁路通</text>
<text class="wm" x="531.3" y="224.1" transform="rotate(6.8 531.3 224.1)">eRailInfo</text>
<text class="wm2" x="593.0" y="227.8" transform="rotate(2.1 593.0 227.8)">إي ريل إينفو</text>
<text class="wm" x="657.7" y="222.7" transform="rotate(-5.1 657.7 222.7)">eRailInfo</text>
<text class="wm2" x="32.4" y="254.0" transform="rotate(-6.5 32.4 254.0)">이레일인포</text>
<use href="#trk" x="96.3" y="246.3" transform="rotate(-5.7 106.3 251.3)"/>
<text class="wm" x="129.2" y="258.2" transform="rotate(-5.5 129.2 258.2)">eRailInfo</text>
<use href="#brg" x="193.9" y="254.0" transform="rotate(-7.4 200.9 259.0)"/>
<text class="wm2" x="253.6" y="250.4" transform="rotate(5.2 253.6 250.4)">イーレールインフォ</text>
<text class="wm2" x="314.7" y="254.9" transform="rotate(-8.7 314.7 254.9)">е-рейл-инфо</text>
<text class="wm" x="377.5" y="252.1" transform="rotate(8.4 377.5 252.1)">eRailInfo</text>
<text class="wm2" x="440.3" y="247.0" transform="rotate(0.1 440.3 247.0)">ई-रेल-इन्फो</text>
<use href="#mtn" x="534.3" y="253.2" transform="rotate(-7.1 538.8 256.7)"/>
<text class="wm" x="564.4" y="245.8" transform="rotate(-0.3 564.4 245.8)">eRailInfo</text>
<use href="#cld" x="661.1" y="245.5" transform="rotate(-6.2 668.1 248.5)"/>
<use href="#tree" x="689.7" y="245.3" transform="rotate(8.1 692.7 249.8)"/>
<use href="#trk" x="49.6" y="281.2" transform="rotate(-1.3 59.6 286.2)"/>
<use href="#pin" x="105.5" y="279.4" transform="rotate(3.6 109.0 284.4)"/>
<text class="wm2" x="160.6" y="276.6" transform="rotate(-1.7 160.6 276.6)">อีเรลอินโฟ</text>
<text class="wm" x="232.3" y="286.8" transform="rotate(-8.7 232.3 286.8)">eRailInfo</text>
<text class="wm2" x="283.0" y="280.5" transform="rotate(6.5 283.0 280.5)">ای‌ریل‌اینفو</text>
<text class="wm" x="357.4" y="286.9" transform="rotate(0.1 357.4 286.9)">eRailInfo</text>
<use href="#sig" x="444.5" y="278.9" transform="rotate(7.4 448.5 283.9)"/>
<text class="wm2" x="471.4" y="286.3" transform="rotate(6.8 471.4 286.3)">ரயில்-தகவல்</text>
<text class="wm2" x="536.8" y="275.1" transform="rotate(-1.7 536.8 275.1)">e-Bahninfo</text>
<use href="#mtn" x="633.0" y="288.9" transform="rotate(-0.6 637.5 292.4)"/>
<text class="wm" x="658.4" y="289.4" transform="rotate(-8.1 658.4 289.4)">eRailInfo</text>
<use href="#brg" x="26.8" y="310.4" transform="rotate(-5.1 33.8 315.4)"/>
<use href="#pin" x="99.0" y="313.1" transform="rotate(9.0 102.5 318.1)"/>
<text class="wm2" x="130.1" y="315.8" transform="rotate(-8.6 130.1 315.8)">э-рейл-инфо</text>
<use href="#mtn" x="224.3" y="313.7" transform="rotate(-1.8 228.8 317.2)"/>
<use href="#cld" x="288.2" y="312.8" transform="rotate(-4.3 295.2 315.8)"/>
<text class="wm" x="321.2" y="319.9" transform="rotate(8.4 321.2 319.9)">eRailInfo</text>
<text class="wm2" x="376.0" y="313.6" transform="rotate(5.6 376.0 313.6)">demiryolu-bilgi</text>
<text class="wm" x="449.7" y="306.6" transform="rotate(-8.2 449.7 306.6)">eRailInfo</text>
<text class="wm2" x="508.5" y="313.8" transform="rotate(-6.0 508.5 313.8)">ইরেলইনফো</text>
<use href="#brg" x="573.4" y="308.8" transform="rotate(8.0 580.4 313.8)"/>
<use href="#tree" x="655.4" y="311.3" transform="rotate(0.5 658.4 315.8)"/>
<use href="#cld" x="687.1" y="316.4" transform="rotate(3.9 694.1 319.4)"/>
<text class="wm" x="40.2" y="344.9" transform="rotate(2.4 40.2 344.9)">eRailInfo</text>
<use href="#brg" x="99.0" y="345.9" transform="rotate(-3.3 106.0 350.9)"/>
<text class="wm" x="170.4" y="340.9" transform="rotate(-7.7 170.4 340.9)">eRailInfo</text>
<text class="wm" x="224.1" y="342.4" transform="rotate(8.5 224.1 342.4)">eRailInfo</text>
<text class="wm" x="288.9" y="349.7" transform="rotate(4.0 288.9 349.7)">eRailInfo</text>
<text class="wm2" x="345.4" y="344.0" transform="rotate(1.9 345.4 344.0)">इ-रेल-इन्फो</text>
<text class="wm2" x="409.1" y="342.4" transform="rotate(-5.3 409.1 342.4)">铁路通</text>
<use href="#brg" x="487.2" y="337.1" transform="rotate(-1.0 494.2 342.1)"/>
<text class="wm" x="540.8" y="342.5" transform="rotate(-1.4 540.8 342.5)">eRailInfo</text>
<text class="wm2" x="593.0" y="337.8" transform="rotate(8.1 593.0 337.8)">إي ريل إينفو</text>
<use href="#trk" x="664.3" y="341.3" transform="rotate(7.1 674.3 346.3)"/>
<text class="wm" x="6.4" y="368.5" transform="rotate(3.6 6.4 368.5)">eRailInfo</text>
<use href="#pin" x="107.3" y="364.5" transform="rotate(8.1 110.8 369.5)"/>
<use href="#brg" x="129.1" y="364.5" transform="rotate(-4.1 136.1 369.5)"/>
<use href="#tun" x="222.9" y="365.4" transform="rotate(-4.0 231.9 371.9)"/>
<use href="#tree" x="275.0" y="366.7" transform="rotate(8.7 278.0 371.2)"/>
<use href="#tun" x="342.9" y="368.0" transform="rotate(4.4 351.9 374.5)"/>
<text class="wm2" x="399.8" y="371.1" transform="rotate(6.1 399.8 371.1)">이레일인포</text>
<text class="wm" x="439.9" y="366.5" transform="rotate(-2.0 439.9 366.5)">eRailInfo</text>
<text class="wm2" x="503.7" y="376.1" transform="rotate(1.7 503.7 376.1)">イーレールインフォ</text>
<text class="wm2" x="564.2" y="373.3" transform="rotate(-5.7 564.2 373.3)">е-рейл-инфо</text>
<text class="wm" x="630.8" y="370.9" transform="rotate(-3.2 630.8 370.9)">eRailInfo</text>
<text class="wm2" x="687.6" y="377.2" transform="rotate(5.7 687.6 377.2)">ई-रेल-इन्फो</text>
<use href="#tun" x="60.0" y="398.5" transform="rotate(-3.4 69.0 405.0)"/>
<text class="wm" x="108.1" y="397.5" transform="rotate(-3.1 108.1 397.5)">eRailInfo</text>
<text class="wm2" x="166.3" y="399.2" transform="rotate(-3.1 166.3 399.2)">อีเรลอินโฟ</text>
<text class="wm" x="232.4" y="405.0" transform="rotate(1.7 232.4 405.0)">eRailInfo</text>
<use href="#cld" x="301.3" y="397.5" transform="rotate(0.5 308.3 400.5)"/>
<text class="wm2" x="345.0" y="395.3" transform="rotate(4.1 345.0 395.3)">ای‌ریل‌اینفو</text>
<text class="wm" x="415.5" y="403.4" transform="rotate(-8.6 415.5 403.4)">eRailInfo</text>
<text class="wm2" x="470.3" y="400.2" transform="rotate(4.3 470.3 400.2)">ரயில்-தகவல்</text>
<use href="#sig" x="539.1" y="403.1" transform="rotate(1.6 543.1 408.1)"/>
<text class="wm2" x="593.2" y="402.3" transform="rotate(-3.9 593.2 402.3)">e-Bahninfo</text>
<text class="wm" x="667.2" y="404.4" transform="rotate(1.2 667.2 404.4)">eRailInfo</text>
<text class="wm2" x="5.9" y="436.6" transform="rotate(-7.8 5.9 436.6)">э-рейл-инфо</text>
<use href="#tun" x="98.4" y="424.8" transform="rotate(-7.5 107.4 431.3)"/>
<text class="wm" x="137.4" y="434.4" transform="rotate(-6.4 137.4 434.4)">eRailInfo</text>
<use href="#trk" x="216.0" y="428.7" transform="rotate(-5.0 226.0 433.7)"/>
<use href="#sig" x="274.7" y="430.4" transform="rotate(8.4 278.7 435.4)"/>
<text class="wm2" x="314.0" y="430.6" transform="rotate(3.7 314.0 430.6)">demiryolu-bilgi</text>
<text class="wm" x="386.8" y="436.9" transform="rotate(3.0 386.8 436.9)">eRailInfo</text>
<text class="wm2" x="454.5" y="434.2" transform="rotate(7.0 454.5 434.2)">ইরেলইনফো</text>
<text class="wm" x="510.1" y="430.7" transform="rotate(3.8 510.1 430.7)">eRailInfo</text>
<text class="wm" x="571.3" y="439.9" transform="rotate(-6.4 571.3 439.9)">eRailInfo</text>
<use href="#pin" x="642.3" y="430.3" transform="rotate(-6.0 645.8 435.3)"/>
<use href="#tree" x="700.8" y="425.5" transform="rotate(6.9 703.8 430.0)"/>
<text class="wm" x="37.3" y="455.0" transform="rotate(5.0 37.3 455.0)">eRailInfo</text>
<text class="wm" x="108.5" y="454.6" transform="rotate(1.5 108.5 454.6)">eRailInfo</text>
<use href="#pin" x="186.7" y="461.2" transform="rotate(-5.7 190.2 466.2)"/>
<text class="wm2" x="222.5" y="468.3" transform="rotate(0.2 222.5 468.3)">इ-रेल-इन्फो</text>
<use href="#cld" x="308.1" y="469.1" transform="rotate(7.4 315.1 472.1)"/>
<text class="wm2" x="364.5" y="460.4" transform="rotate(6.4 364.5 460.4)">铁路通</text>
<text class="wm" x="416.7" y="455.5" transform="rotate(2.9 416.7 455.5)">eRailInfo</text>
<text class="wm2" x="469.0" y="456.1" transform="rotate(-1.8 469.0 456.1)">إي ريل إينفو</text>
<text class="wm" x="541.0" y="466.4" transform="rotate(8.6 541.0 466.4)">eRailInfo</text>
<text class="wm2" x="621.7" y="468.3" transform="rotate(-8.0 621.7 468.3)">이레일인포</text>
<text class="wm" x="660.7" y="457.9" transform="rotate(7.3 660.7 457.9)">eRailInfo</text>
<text class="wm2" x="9.2" y="496.4" transform="rotate(6.7 9.2 496.4)">イーレールインフォ</text>
<use href="#sig" x="95.3" y="495.9" transform="rotate(7.3 99.3 500.9)"/>
<use href="#sig" x="154.3" y="486.1" transform="rotate(0.6 158.3 491.1)"/>
<use href="#sig" x="227.8" y="485.0" transform="rotate(7.5 231.8 490.0)"/>
<use href="#tun" x="284.0" y="490.2" transform="rotate(3.9 293.0 496.7)"/>
<use href="#cld" x="314.8" y="487.0" transform="rotate(4.5 321.8 490.0)"/>
<use href="#tree" x="386.0" y="491.1" transform="rotate(3.3 389.0 495.6)"/>
<text class="wm2" x="440.8" y="489.0" transform="rotate(-6.2 440.8 489.0)">е-рейл-инфо</text>
<use href="#cld" x="539.9" y="494.7" transform="rotate(-7.6 546.9 497.7)"/>
<use href="#sig" x="566.9" y="488.7" transform="rotate(-7.7 570.9 493.7)"/>
<text class="wm" x="634.5" y="494.5" transform="rotate(8.4 634.5 494.5)">eRailInfo</text>
<use href="#tree" x="697.4" y="491.3" transform="rotate(-2.2 700.4 495.8)"/>
<text class="wm2" x="38.4" y="526.8" transform="rotate(-8.8 38.4 526.8)">ई-रेल-इन्फो</text>
<use href="#cld" x="122.1" y="529.0" transform="rotate(2.1 129.1 532.0)"/>
<text class="wm" x="168.5" y="522.9" transform="rotate(8.2 168.5 522.9)">eRailInfo</text>
<use href="#brg" x="250.3" y="518.0" transform="rotate(-5.6 257.3 523.0)"/>
<text class="wm2" x="288.8" y="519.3" transform="rotate(1.1 288.8 519.3)">อีเรลอินโฟ</text>
<text class="wm" x="346.8" y="515.5" transform="rotate(-7.3 346.8 515.5)">eRailInfo</text>
<text class="wm2" x="407.0" y="520.4" transform="rotate(3.7 407.0 520.4)">ای‌ریل‌اینفو</text>
<text class="wm" x="470.1" y="517.6" transform="rotate(1.7 470.1 517.6)">eRailInfo</text>
<use href="#brg" x="561.8" y="518.1" transform="rotate(-6.8 568.8 523.1)"/>
<text class="wm2" x="593.5" y="517.3" transform="rotate(7.7 593.5 517.3)">ரயில்-தகவல்</text>
<use href="#tree" x="670.9" y="519.4" transform="rotate(3.4 673.9 523.9)"/>
<use href="#trk" x="37.4" y="553.5" transform="rotate(-1.8 47.4 558.5)"/>
<text class="wm2" x="66.1" y="549.3" transform="rotate(2.0 66.1 549.3)">e-Bahninfo</text>
<use href="#tun" x="148.1" y="545.8" transform="rotate(2.7 157.1 552.3)"/>
<use href="#tun" x="212.0" y="545.4" transform="rotate(-3.7 221.0 551.9)"/>
<text class="wm" x="258.9" y="549.6" transform="rotate(7.3 258.9 549.6)">eRailInfo</text>
<text class="wm2" x="316.4" y="559.8" transform="rotate(-6.4 316.4 559.8)">э-рейл-инфо</text>
<text class="wm" x="386.5" y="547.2" transform="rotate(3.9 386.5 547.2)">eRailInfo</text>
<text class="wm2" x="438.0" y="545.3" transform="rotate(2.3 438.0 545.3)">demiryolu-bilgi</text>
<use href="#trk" x="511.2" y="555.1" transform="rotate(1.4 521.2 560.1)"/>
<use href="#tun" x="578.3" y="550.6" transform="rotate(-0.7 587.3 557.1)"/>
<use href="#tun" x="644.2" y="546.4" transform="rotate(1.2 653.2 552.9)"/>
<text class="wm" x="696.3" y="553.6" transform="rotate(8.9 696.3 553.6)">eRailInfo</text>
<use href="#cld" x="62.4" y="579.8" transform="rotate(5.8 69.4 582.8)"/>
<text class="wm2" x="99.9" y="583.6" transform="rotate(-2.5 99.9 583.6)">ইরেলইনফো</text>
<text class="wm" x="164.1" y="586.5" transform="rotate(-0.8 164.1 586.5)">eRailInfo</text>
<text class="wm" x="222.7" y="586.1" transform="rotate(9.0 222.7 586.1)">eRailInfo</text>
<text class="wm" x="290.8" y="584.2" transform="rotate(7.3 290.8 584.2)">eRailInfo</text>
<text class="wm" x="350.2" y="574.5" transform="rotate(-6.1 350.2 574.5)">eRailInfo</text>
<text class="wm2" x="408.4" y="579.4" transform="rotate(-6.9 408.4 579.4)">इ-रेल-इन्फो</text>
<use href="#trk" x="470.8" y="583.4" transform="rotate(-4.6 480.8 588.4)"/>
<text class="wm2" x="547.2" y="582.0" transform="rotate(5.2 547.2 582.0)">铁路通</text>
<use href="#brg" x="623.1" y="579.8" transform="rotate(-2.8 630.1 584.8)"/>
<text class="wm" x="665.8" y="580.5" transform="rotate(6.1 665.8 580.5)">eRailInfo</text>
<text class="wm2" x="4.0" y="612.4" transform="rotate(1.2 4.0 612.4)">إي ريل إينفو</text>
<text class="wm" x="77.4" y="609.1" transform="rotate(-1.2 77.4 609.1)">eRailInfo</text>
<use href="#brg" x="157.3" y="611.2" transform="rotate(4.1 164.3 616.2)"/>
<text class="wm2" x="208.4" y="605.1" transform="rotate(-3.5 208.4 605.1)">이레일인포</text>
<use href="#brg" x="290.9" y="609.7" transform="rotate(-1.0 297.9 614.7)"/>
<use href="#cld" x="340.3" y="619.0" transform="rotate(7.4 347.3 622.0)"/>
<text class="wm" x="385.2" y="617.9" transform="rotate(9.0 385.2 617.9)">eRailInfo</text>
<use href="#sig" x="448.2" y="613.0" transform="rotate(0.8 452.2 618.0)"/>
<text class="wm2" x="501.2" y="616.7" transform="rotate(7.3 501.2 616.7)">イーレールインフォ</text>
<use href="#tree" x="562.0" y="607.2" transform="rotate(0.7 565.0 611.7)"/>
<use href="#tun" x="639.9" y="608.1" transform="rotate(-3.2 648.9 614.6)"/>
<text class="wm2" x="688.4" y="607.7" transform="rotate(-6.5 688.4 607.7)">е-рейл-инфо</text>
<use href="#trk" x="45.5" y="640.0" transform="rotate(-0.8 55.5 645.0)"/>
<text class="wm" x="103.0" y="637.3" transform="rotate(8.6 103.0 637.3)">eRailInfo</text>
<use href="#mtn" x="167.8" y="646.6" transform="rotate(7.6 172.3 650.1)"/>
<use href="#sig" x="250.2" y="642.4" transform="rotate(-0.5 254.2 647.4)"/>
<text class="wm2" x="283.8" y="649.2" transform="rotate(0.6 283.8 649.2)">ई-रेल-इन्फो</text>
<text class="wm" x="348.9" y="647.1" transform="rotate(2.7 348.9 647.1)">eRailInfo</text>
<text class="wm2" x="410.4" y="648.1" transform="rotate(-4.1 410.4 648.1)">อีเรลอินโฟ</text>
<use href="#tree" x="488.9" y="636.2" transform="rotate(8.2 491.9 640.7)"/>
<text class="wm" x="539.7" y="638.3" transform="rotate(-6.8 539.7 638.3)">eRailInfo</text>
<text class="wm2" x="593.0" y="638.4" transform="rotate(0.0 593.0 638.4)">ای‌ریل‌اینفو</text>
<text class="wm" x="656.5" y="642.3" transform="rotate(0.4 656.5 642.3)">eRailInfo</text>
<text class="wm2" x="4.6" y="667.6" transform="rotate(7.1 4.6 667.6)">ரயில்-தகவல்</text>
<use href="#tree" x="113.2" y="669.7" transform="rotate(3.0 116.2 674.2)"/>
<text class="wm2" x="128.4" y="673.6" transform="rotate(0.6 128.4 673.6)">e-Bahninfo</text>
<use href="#tun" x="195.9" y="672.9" transform="rotate(-4.5 204.9 679.4)"/>
<use href="#mtn" x="260.4" y="677.5" transform="rotate(-5.8 264.9 681.0)"/>
<text class="wm" x="319.8" y="676.0" transform="rotate(-8.4 319.8 676.0)">eRailInfo</text>
<use href="#tree" x="378.9" y="664.8" transform="rotate(7.7 381.9 669.3)"/>
<text class="wm2" x="439.1" y="671.7" transform="rotate(7.4 439.1 671.7)">э-рейл-инфо</text>
<use href="#sig" x="527.3" y="673.3" transform="rotate(-3.8 531.3 678.3)"/>
<use href="#tree" x="588.3" y="667.3" transform="rotate(-1.2 591.3 671.8)"/>
<text class="wm" x="627.3" y="672.7" transform="rotate(4.0 627.3 672.7)">eRailInfo</text>
<text class="wm2" x="686.0" y="667.2" transform="rotate(1.9 686.0 667.2)">demiryolu-bilgi</text>
<text class="wm" x="40.6" y="708.1" transform="rotate(-8.1 40.6 708.1)">eRailInfo</text>
<use href="#tree" x="135.7" y="700.5" transform="rotate(1.9 138.7 705.0)"/>
<text class="wm2" x="159.5" y="695.8" transform="rotate(6.4 159.5 695.8)">ইরেলইনফো</text>
<use href="#pin" x="250.3" y="694.6" transform="rotate(2.5 253.8 699.6)"/>
<text class="wm" x="293.3" y="705.8" transform="rotate(3.5 293.3 705.8)">eRailInfo</text>
<text class="wm" x="351.3" y="704.4" transform="rotate(4.8 351.3 704.4)">eRailInfo</text>
<text class="wm" x="410.1" y="701.9" transform="rotate(-2.2 410.1 701.9)">eRailInfo</text>
<text class="wm" x="474.7" y="699.1" transform="rotate(1.7 474.7 699.1)">eRailInfo</text>
<text class="wm2" x="533.4" y="709.3" transform="rotate(3.6 533.4 709.3)">इ-रेल-इन्फो</text>
<use href="#sig" x="599.7" y="699.5" transform="rotate(4.6 603.7 704.5)"/>
<text class="wm2" x="664.7" y="708.2" transform="rotate(-8.3 664.7 708.2)">铁路通</text>
<use href="#cld" x="22.9" y="739.0" transform="rotate(-1.9 29.9 742.0)"/>
<text class="wm" x="75.0" y="739.6" transform="rotate(3.2 75.0 739.6)">eRailInfo</text>
<text class="wm2" x="128.0" y="737.7" transform="rotate(-3.7 128.0 737.7)">إي ريل إينفو</text>
<use href="#pin" x="207.1" y="728.0" transform="rotate(-7.5 210.6 733.0)"/>
<text class="wm" x="252.5" y="730.4" transform="rotate(2.0 252.5 730.4)">eRailInfo</text>
<text class="wm2" x="324.6" y="735.1" transform="rotate(-7.9 324.6 735.1)">이레일인포</text>
<text class="wm" x="387.2" y="731.4" transform="rotate(1.6 387.2 731.4)">eRailInfo</text>
<use href="#brg" x="453.1" y="724.6" transform="rotate(6.2 460.1 729.6)"/>
<use href="#sig" x="522.1" y="728.8" transform="rotate(-4.6 526.1 733.8)"/>
<text class="wm2" x="568.0" y="731.8" transform="rotate(4.7 568.0 731.8)">イーレールインフォ</text>
<text class="wm2" x="625.7" y="732.6" transform="rotate(-5.7 625.7 732.6)">е-рейл-инфо</text>
<use href="#cld" x="700.5" y="728.4" transform="rotate(-8.2 707.5 731.4)"/>
<use href="#cld" x="55.5" y="763.1" transform="rotate(-5.7 62.5 766.1)"/>
<text class="wm" x="98.3" y="754.9" transform="rotate(-5.1 98.3 754.9)">eRailInfo</text>
<text class="wm2" x="159.5" y="757.9" transform="rotate(5.0 159.5 757.9)">ई-रेल-इन्फो</text>
<text class="wm" x="233.6" y="767.4" transform="rotate(-6.9 233.6 767.4)">eRailInfo</text>
<text class="wm2" x="286.1" y="758.1" transform="rotate(6.4 286.1 758.1)">อีเรลอินโฟ</text>
<text class="wm" x="348.8" y="763.7" transform="rotate(3.0 348.8 763.7)">eRailInfo</text>
<text class="wm2" x="407.0" y="756.0" transform="rotate(-5.6 407.0 756.0)">ای‌ریل‌اینفو</text>
<use href="#tree" x="495.1" y="755.8" transform="rotate(-1.6 498.1 760.3)"/>
<text class="wm" x="540.1" y="764.7" transform="rotate(-4.3 540.1 764.7)">eRailInfo</text>
<use href="#cld" x="614.4" y="761.2" transform="rotate(-5.3 621.4 764.2)"/>
<use href="#trk" x="662.7" y="757.5" transform="rotate(0.3 672.7 762.5)"/>
<use href="#mtn" x="42.2" y="795.2" transform="rotate(-5.1 46.7 798.7)"/>
<text class="wm2" x="68.6" y="795.9" transform="rotate(-8.8 68.6 795.9)">ரயில்-தகவல்</text>
<text class="wm2" x="134.8" y="792.9" transform="rotate(-7.8 134.8 792.9)">e-Bahninfo</text>
<use href="#trk" x="198.0" y="791.6" transform="rotate(-6.8 208.0 796.6)"/>
<use href="#brg" x="271.7" y="789.9" transform="rotate(-1.3 278.7 794.9)"/>
<text class="wm" x="322.9" y="787.5" transform="rotate(-3.9 322.9 787.5)">eRailInfo</text>
<text class="wm2" x="378.6" y="789.6" transform="rotate(-5.4 378.6 789.6)">э-рейл-инфо</text>
<text class="wm" x="447.4" y="798.5" transform="rotate(0.4 447.4 798.5)">eRailInfo</text>
<text class="wm2" x="500.0" y="797.6" transform="rotate(-0.4 500.0 797.6)">demiryolu-bilgi</text>
<use href="#brg" x="566.8" y="794.9" transform="rotate(7.5 573.8 799.9)"/>
<text class="wm" x="628.8" y="797.5" transform="rotate(-4.1 628.8 797.5)">eRailInfo</text>
<use href="#cld" x="688.9" y="784.6" transform="rotate(3.9 695.9 787.6)"/>
<use href="#cld" x="45.5" y="824.7" transform="rotate(-2.3 52.5 827.7)"/>
<use href="#trk" x="129.5" y="818.4" transform="rotate(-0.6 139.5 823.4)"/>
<text class="wm2" x="172.3" y="824.0" transform="rotate(8.0 172.3 824.0)">ইরেলইনফো</text>
<text class="wm" x="226.2" y="818.4" transform="rotate(-1.6 226.2 818.4)">eRailInfo</text>
<text class="wm" x="287.8" y="828.6" transform="rotate(6.8 287.8 828.6)">eRailInfo</text>
<use href="#cld" x="357.3" y="819.8" transform="rotate(-6.6 364.3 822.8)"/>
<text class="wm" x="409.4" y="817.7" transform="rotate(-6.3 409.4 817.7)">eRailInfo</text>
<text class="wm" x="469.0" y="822.7" transform="rotate(-4.8 469.0 822.7)">eRailInfo</text>
<use href="#tree" x="571.8" y="823.9" transform="rotate(-4.7 574.8 828.4)"/>
<use href="#trk" x="602.0" y="815.2" transform="rotate(5.8 612.0 820.2)"/>
<use href="#pin" x="687.7" y="822.2" transform="rotate(5.5 691.2 827.2)"/>
<text class="wm2" x="4.5" y="853.9" transform="rotate(5.8 4.5 853.9)">इ-रेल-इन्फो</text>
<text class="wm2" x="80.9" y="848.6" transform="rotate(1.1 80.9 848.6)">铁路通</text>
<text class="wm" x="131.0" y="848.0" transform="rotate(0.6 131.0 848.0)">eRailInfo</text>
<use href="#sig" x="230.4" y="855.9" transform="rotate(-5.8 234.4 860.9)"/>
<text class="wm2" x="252.0" y="857.6" transform="rotate(6.9 252.0 857.6)">إي ريل إينفو</text>
<text class="wm" x="314.5" y="853.9" transform="rotate(3.2 314.5 853.9)">eRailInfo</text>
<use href="#trk" x="384.6" y="850.1" transform="rotate(-0.3 394.6 855.1)"/>
<text class="wm2" x="460.2" y="848.0" transform="rotate(-1.9 460.2 848.0)">이레일인포</text>
<text class="wm" x="504.2" y="856.1" transform="rotate(-3.1 504.2 856.1)">eRailInfo</text>
<text class="wm2" x="569.2" y="850.7" transform="rotate(5.9 569.2 850.7)">イーレールインフォ</text>
<text class="wm2" x="626.8" y="856.8" transform="rotate(2.2 626.8 856.8)">е-рейл-инфо</text>
<use href="#cld" x="695.2" y="847.0" transform="rotate(-2.2 702.2 850.0)"/>
<use href="#sig" x="47.3" y="877.3" transform="rotate(1.5 51.3 882.3)"/>
<use href="#brg" x="134.3" y="885.9" transform="rotate(3.0 141.3 890.9)"/>
<use href="#tun" x="190.3" y="875.7" transform="rotate(3.8 199.3 882.2)"/>
<use href="#tun" x="235.6" y="882.1" transform="rotate(0.7 244.6 888.6)"/>
<text class="wm" x="285.2" y="875.1" transform="rotate(6.4 285.2 875.1)">eRailInfo</text>
<text class="wm2" x="347.2" y="877.6" transform="rotate(6.7 347.2 877.6)">ई-रेल-इन्फो</text>
<text class="wm" x="408.8" y="883.2" transform="rotate(-1.7 408.8 883.2)">eRailInfo</text>
<text class="wm2" x="471.3" y="887.9" transform="rotate(-5.1 471.3 887.9)">อีเรลอินโฟ</text>
<text class="wm" x="538.0" y="888.3" transform="rotate(6.0 538.0 888.3)">eRailInfo</text>
<text class="wm2" x="593.0" y="888.2" transform="rotate(-1.2 593.0 888.2)">ای‌ریل‌اینفو</text>
<use href="#cld" x="680.0" y="878.4" transform="rotate(1.2 687.0 881.4)"/>
<use href="#trk" x="22.8" y="910.7" transform="rotate(-0.3 32.8 915.7)"/>
<use href="#cld" x="92.8" y="904.1" transform="rotate(-8.9 99.8 907.1)"/>
<use href="#pin" x="174.6" y="908.9" transform="rotate(-6.5 178.1 913.9)"/>
<use href="#brg" x="212.3" y="906.6" transform="rotate(-2.7 219.3 911.6)"/>
<text class="wm" x="255.2" y="907.0" transform="rotate(5.9 255.2 907.0)">eRailInfo</text>
<use href="#tree" x="341.4" y="916.2" transform="rotate(-4.5 344.4 920.7)"/>
<use href="#sig" x="400.8" y="912.1" transform="rotate(6.4 404.8 917.1)"/>
<use href="#cld" x="440.5" y="911.5" transform="rotate(-8.6 447.5 914.5)"/>
<text class="wm2" x="501.2" y="916.3" transform="rotate(-7.9 501.2 916.3)">ரயில்-தகவல்</text>
<use href="#tree" x="581.2" y="914.4" transform="rotate(-4.6 584.2 918.9)"/>
<text class="wm2" x="631.9" y="905.6" transform="rotate(4.8 631.9 905.6)">e-Bahninfo</text>
<text class="wm" x="694.9" y="908.0" transform="rotate(-1.8 694.9 908.0)">eRailInfo</text>
<text class="wm2" x="37.0" y="937.6" transform="rotate(-8.6 37.0 937.6)">э-рейл-инфо</text>
<use href="#cld" x="129.4" y="939.8" transform="rotate(-2.4 136.4 942.8)"/>
<text class="wm" x="162.5" y="948.5" transform="rotate(-2.6 162.5 948.5)">eRailInfo</text>
<use href="#trk" x="228.3" y="936.2" transform="rotate(-7.3 238.3 941.2)"/>
<use href="#cld" x="310.2" y="936.8" transform="rotate(-6.6 317.2 939.8)"/>
<use href="#trk" x="351.2" y="934.3" transform="rotate(-6.4 361.2 939.3)"/>
<use href="#tun" x="418.6" y="938.8" transform="rotate(-8.1 427.6 945.3)"/>
<text class="wm2" x="469.0" y="939.1" transform="rotate(-5.3 469.0 939.1)">demiryolu-bilgi</text>
<text class="wm" x="543.4" y="940.9" transform="rotate(-7.0 543.4 940.9)">eRailInfo</text>
<text class="wm2" x="600.0" y="945.3" transform="rotate(-5.0 600.0 945.3)">ইরেলইনফো</text>
<use href="#brg" x="692.9" y="937.9" transform="rotate(-4.1 699.9 942.9)"/>
<use href="#mtn" x="10.7" y="973.5" transform="rotate(-2.6 15.2 977.0)"/>
<use href="#pin" x="95.0" y="968.1" transform="rotate(2.6 98.5 973.1)"/>
<text class="wm" x="133.3" y="979.5" transform="rotate(3.9 133.3 979.5)">eRailInfo</text>
<text class="wm" x="199.3" y="975.9" transform="rotate(-6.8 199.3 975.9)">eRailInfo</text>
<text class="wm" x="262.5" y="972.0" transform="rotate(-0.6 262.5 972.0)">eRailInfo</text>
<use href="#mtn" x="337.2" y="964.5" transform="rotate(0.7 341.7 968.0)"/>
<text class="wm" x="383.5" y="973.5" transform="rotate(-1.0 383.5 973.5)">eRailInfo</text>
<text class="wm2" x="439.6" y="979.9" transform="rotate(-6.3 439.6 979.9)">इ-रेल-इन्फो</text>
<text class="wm2" x="529.6" y="979.8" transform="rotate(-3.4 529.6 979.8)">铁路通</text>
<use href="#sig" x="596.6" y="974.8" transform="rotate(6.6 600.6 979.8)"/>
<use href="#sig" x="662.1" y="973.6" transform="rotate(-5.6 666.1 978.6)"/>
<text class="wm" x="686.8" y="977.9" transform="rotate(8.9 686.8 977.9)">eRailInfo</text>
<text class="wm2" x="35.0" y="1001.3" transform="rotate(-4.5 35.0 1001.3)">إي ريل إينفو</text>
<text class="wm" x="99.5" y="998.5" transform="rotate(6.6 99.5 998.5)">eRailInfo</text>
<text class="wm2" x="176.2" y="1006.6" transform="rotate(-7.7 176.2 1006.6)">이레일인포</text>
<text class="wm" x="231.1" y="1007.7" transform="rotate(-4.6 231.1 1007.7)">eRailInfo</text>
<text class="wm2" x="294.4" y="1006.7" transform="rotate(0.9 294.4 1006.7)">イーレールインフォ</text>
<use href="#tun" x="357.0" y="1002.4" transform="rotate(-2.4 366.0 1008.9)"/>
<text class="wm2" x="408.0" y="1000.7" transform="rotate(-5.0 408.0 1000.7)">е-рейл-инфо</text>
<text class="wm" x="477.6" y="1001.5" transform="rotate(-8.4 477.6 1001.5)">eRailInfo</text>
<text class="wm2" x="533.2" y="1002.5" transform="rotate(-7.4 533.2 1002.5)">ई-रेल-इन्फो</text>
<use href="#pin" x="619.3" y="1005.9" transform="rotate(8.2 622.8 1010.9)"/>
<use href="#trk" x="683.7" y="1005.4" transform="rotate(5.7 693.7 1010.4)"/>
<text class="wm" x="6.6" y="1036.3" transform="rotate(-5.2 6.6 1036.3)">eRailInfo</text>
<use href="#mtn" x="71.8" y="1025.7" transform="rotate(1.4 76.3 1029.2)"/>
<text class="wm2" x="130.9" y="1027.1" transform="rotate(2.0 130.9 1027.1)">อีเรลอินโฟ</text>
<text class="wm" x="199.3" y="1029.8" transform="rotate(3.4 199.3 1029.8)">eRailInfo</text>
<use href="#sig" x="255.3" y="1027.2" transform="rotate(-1.7 259.3 1032.2)"/>
<use href="#cld" x="332.3" y="1032.1" transform="rotate(2.0 339.3 1035.1)"/>
<text class="wm2" x="376.0" y="1027.8" transform="rotate(-2.8 376.0 1027.8)">ای‌ریل‌اینفو</text>
<text class="wm" x="449.0" y="1028.6" transform="rotate(-3.9 449.0 1028.6)">eRailInfo</text>
<text class="wm2" x="501.5" y="1038.9" transform="rotate(3.2 501.5 1038.9)">ரயில்-தகவல்</text>
<use href="#pin" x="583.1" y="1024.8" transform="rotate(4.4 586.6 1029.8)"/>
<use href="#tree" x="655.6" y="1027.5" transform="rotate(-3.9 658.6 1032.0)"/>
<text class="wm2" x="690.9" y="1024.2" transform="rotate(-8.8 690.9 1024.2)">e-Bahninfo</text>
</svg>
