<svg width="680" height="1000" viewBox="0 0 680 1000" xmlns="http://www.w3.org/2000/svg" role="img">
<title>eRailInfo multilingual pattern background</title>
<defs>
<style>
  .bgrect{fill:#f5f1e8}
  .wm{fill:#d9cfba;font-family:Georgia,serif;font-style:italic;font-size:15px}
  .wm2{fill:#dcd2bd;font-family:'Noto Sans',sans-serif;font-size:14px}
  .d{fill:none;stroke:#d7cfbf;stroke-width:1.3;stroke-linecap:round;stroke-linejoin:round}
</style>
</defs>
<rect class="bgrect" x="0" y="0" width="680" height="1000"/>
 
<g id="mtn"><path class="d" d="M0 14 L9 0 L18 14 Z"/></g>
<g id="tun"><path class="d" d="M0 18 A18 18 0 0 1 36 18"/><line class="d" x1="0" y1="18" x2="0" y2="26"/><line class="d" x1="36" y1="18" x2="36" y2="26"/></g>
<g id="sig"><line class="d" x1="8" y1="0" x2="8" y2="16"/><line class="d" x1="0" y1="20" x2="16" y2="20"/><line class="d" x1="8" y1="16" x2="3" y2="20"/><line class="d" x1="8" y1="16" x2="13" y2="20"/></g>
<g id="pin"><rect class="d" x="0" y="0" width="14" height="20" rx="2"/><circle class="d" cx="7" cy="6" r="2"/></g>
<g id="cld"><path class="d" d="M0 10 Q0 2 8 2 Q10 -3 16 0 Q22 -2 22 6 Q28 6 26 12 L2 12 Z"/></g>
<g id="trk"><path class="d" d="M0 10 Q10 0 20 10 Q30 20 40 10"/></g>
<g id="brg"><path class="d" d="M0 14 A14 14 0 0 1 28 14"/><line class="d" x1="0" y1="14" x2="0" y2="20"/><line class="d" x1="28" y1="14" x2="28" y2="20"/><line class="d" x1="-4" y1="20" x2="32" y2="20"/></g>
<g id="tree"><line class="d" x1="6" y1="10" x2="6" y2="18"/><path class="d" d="M6 0 L0 10 L12 10 Z"/></g>
 
<use href="#mtn" x="14" y="10"/><text class="wm" x="45" y="26" transform="rotate(-3 45 26)">eRailInfo</text>
<use href="#trk" x="150" y="14"/><text class="wm2" x="205" y="26" transform="rotate(2 205 26)">इ-रेल-इन्फो</text>
<use href="#tun" x="300" y="8"/><text class="wm" x="350" y="26" transform="rotate(-2 350 26)">eRailInfo</text>
<use href="#pin" x="450" y="6"/><text class="wm2" x="480" y="26" transform="rotate(3 480 26)">铁路通</text>
<use href="#sig" x="580" y="6"/><text class="wm" x="610" y="26" transform="rotate(-3 610 26)">eRailInfo</text>
 
<text class="wm2" x="10" y="55" transform="rotate(2 10 55)">إي ريل إينفو</text>
<use href="#cld" x="130" y="44"/><text class="wm" x="180" y="60" transform="rotate(-2 180 60)">eRailInfo</text>
<use href="#tree" x="300" y="44"/><text class="wm2" x="330" y="60" transform="rotate(3 330 60)">이레일인포</text>
<use href="#brg" x="420" y="46"/><text class="wm" x="470" y="60" transform="rotate(-2 470 60)">eRailInfo</text>
<use href="#mtn" x="590" y="46"/><text class="wm2" x="10" y="90" transform="rotate(2 10 90)">eRailInfo</text>
 
<use href="#trk" x="90" y="78"/><text class="wm" x="150" y="94" transform="rotate(-3 150 94)">eRailInfo</text>
<use href="#tun" x="270" y="72"/><text class="wm2" x="320" y="94" transform="rotate(2 320 94)">イーレールインフォ</text>
<use href="#sig" x="470" y="76"/><text class="wm" x="500" y="94" transform="rotate(-2 500 94)">eRailInfo</text>
<use href="#pin" x="610" y="76"/><text class="wm2" x="10" y="124" transform="rotate(3 10 124)">ইরেলইনফো</text>
 
<use href="#mtn" x="150" y="108"/><text class="wm" x="185" y="126" transform="rotate(-2 185 126)">eRailInfo</text>
<use href="#cld" x="320" y="106"/><text class="wm2" x="370" y="126" transform="rotate(2 370 126)">е-рейл-инфо</text>
<use href="#tree" x="480" y="108"/><text class="wm" x="510" y="126" transform="rotate(-3 510 126)">eRailInfo</text>
<use href="#brg" x="600" y="106"/>
 
<text class="wm2" x="10" y="158" transform="rotate(2 10 158)">eRailInfo</text>
<use href="#trk" x="120" y="140"/><text class="wm" x="180" y="158" transform="rotate(-2 180 158)">eRailInfo</text>
<use href="#sig" x="330" y="138"/><text class="wm2" x="360" y="158" transform="rotate(3 360 158)">ई-रेल-इन्फो</text>
<use href="#pin" x="480" y="138"/><text class="wm" x="510" y="158" transform="rotate(-2 510 158)">eRailInfo</text>
<use href="#mtn" x="620" y="140"/>
 
<use href="#tun" x="30" y="170"/><text class="wm2" x="80" y="192" transform="rotate(2 80 192)">อีเรลอินโฟ</text>
<use href="#cld" x="220" y="170"/><text class="wm" x="270" y="192" transform="rotate(-3 270 192)">eRailInfo</text>
<use href="#tree" x="400" y="172"/><text class="wm2" x="430" y="192" transform="rotate(2 430 192)">eRailInfo</text>
<use href="#brg" x="540" y="170"/><text class="wm" x="10" y="222" transform="rotate(-2 10 222)">eRailInfo</text>
 
<use href="#trk" x="150" y="204"/><text class="wm2" x="210" y="222" transform="rotate(3 210 222)">ای‌ریل‌اینفو</text>
<use href="#mtn" x="360" y="200"/><text class="wm" x="395" y="222" transform="rotate(-2 395 222)">eRailInfo</text>
<use href="#sig" x="500" y="202"/><text class="wm2" x="530" y="222" transform="rotate(2 530 222)">이레일인포</text>
<use href="#pin" x="630" y="202"/>
 
<text class="wm" x="10" y="254" transform="rotate(-3 10 254)">eRailInfo</text>
<use href="#tun" x="120" y="234"/><text class="wm2" x="170" y="256" transform="rotate(2 170 256)">ரயில்-தகவல்</text>
<use href="#cld" x="320" y="234"/><text class="wm" x="370" y="256" transform="rotate(-2 370 256)">eRailInfo</text>
<use href="#tree" x="500" y="236"/><text class="wm2" x="530" y="256" transform="rotate(3 530 256)">e-Bahninfo</text>
 
<use href="#brg" x="30" y="266"/><text class="wm" x="80" y="286" transform="rotate(-2 80 286)">eRailInfo</text>
<use href="#trk" x="220" y="268"/><text class="wm2" x="280" y="286" transform="rotate(2 280 286)">э-рейл-инфо</text>
<use href="#mtn" x="430" y="264"/><text class="wm" x="465" y="286" transform="rotate(-3 465 286)">eRailInfo</text>
<use href="#sig" x="580" y="266"/>
 
<text class="wm2" x="10" y="318" transform="rotate(2 10 318)">demiryolu-bilgi</text>
<use href="#pin" x="180" y="298"/><text class="wm" x="215" y="320" transform="rotate(-2 215 320)">eRailInfo</text>
<use href="#tun" x="370" y="296"/><text class="wm2" x="420" y="320" transform="rotate(3 420 320)">इ-रेल-इन्फो</text>
<use href="#cld" x="560" y="298"/><text class="wm" x="10" y="350" transform="rotate(-2 10 350)">eRailInfo</text>
 
<use href="#tree" x="140" y="330"/><text class="wm2" x="170" y="350" transform="rotate(2 170 350)">铁路通</text>
<use href="#brg" x="320" y="330"/><text class="wm" x="370" y="350" transform="rotate(-3 370 350)">eRailInfo</text>
<use href="#trk" x="480" y="332"/><text class="wm2" x="540" y="350" transform="rotate(2 540 350)">إي ريل إينفو</text>
 
<use href="#mtn" x="30" y="360"/><text class="wm" x="65" y="382" transform="rotate(-2 65 382)">eRailInfo</text>
<use href="#sig" x="220" y="362"/><text class="wm2" x="250" y="382" transform="rotate(3 250 382)">이레일인포</text>
<use href="#pin" x="400" y="362"/><text class="wm" x="430" y="382" transform="rotate(-2 430 382)">eRailInfo</text>
<use href="#tun" x="580" y="360"/>
 
<text class="wm2" x="10" y="414" transform="rotate(2 10 414)">ইরেলইনফো</text>
<use href="#cld" x="150" y="394"/><text class="wm" x="200" y="416" transform="rotate(-3 200 416)">eRailInfo</text>
<use href="#tree" x="350" y="396"/><text class="wm2" x="380" y="416" transform="rotate(2 380 416)">е-рейл-инфо</text>
<use href="#brg" x="500" y="394"/><text class="wm" x="10" y="446" transform="rotate(-2 10 446)">eRailInfo</text>
 
<use href="#trk" x="150" y="426"/><text class="wm2" x="210" y="444" transform="rotate(3 210 444)">ई-रेल-इन्फो</text>
<use href="#mtn" x="360" y="422"/><text class="wm" x="395" y="444" transform="rotate(-2 395 444)">eRailInfo</text>
<use href="#sig" x="500" y="424"/><text class="wm2" x="530" y="444" transform="rotate(2 530 444)">อีเรลอินโฟ</text>
<use href="#pin" x="630" y="424"/>
 
<text class="wm" x="10" y="478" transform="rotate(-3 10 478)">eRailInfo</text>
<use href="#tun" x="120" y="458"/><text class="wm2" x="170" y="480" transform="rotate(2 170 480)">ای‌ریل‌اینفو</text>
<use href="#cld" x="320" y="458"/><text class="wm" x="370" y="480" transform="rotate(-2 370 480)">eRailInfo</text>
<use href="#tree" x="500" y="460"/><text class="wm2" x="530" y="480" transform="rotate(3 530 480)">eRailInfo</text>
 
<use href="#brg" x="30" y="490"/><text class="wm" x="80" y="510" transform="rotate(-2 80 510)">eRailInfo</text>
<use href="#trk" x="220" y="492"/><text class="wm2" x="280" y="510" transform="rotate(2 280 510)">ரயில்-தகவல்</text>
<use href="#mtn" x="430" y="488"/><text class="wm" x="465" y="510" transform="rotate(-3 465 510)">eRailInfo</text>
<use href="#sig" x="580" y="490"/>
 
<text class="wm2" x="10" y="542" transform="rotate(2 10 542)">e-Bahninfo</text>
<use href="#pin" x="180" y="522"/><text class="wm" x="215" y="544" transform="rotate(-2 215 544)">eRailInfo</text>
<use href="#tun" x="370" y="520"/><text class="wm2" x="420" y="544" transform="rotate(3 420 544)">铁路通</text>
<use href="#cld" x="560" y="522"/><text class="wm" x="10" y="574" transform="rotate(-2 10 574)">eRailInfo</text>
 
<use href="#tree" x="140" y="554"/><text class="wm2" x="170" y="574" transform="rotate(2 170 574)">इ-रेल-इन्फो</text>
<use href="#brg" x="320" y="554"/><text class="wm" x="370" y="574" transform="rotate(-3 370 574)">eRailInfo</text>
<use href="#trk" x="480" y="556"/><text class="wm2" x="540" y="574" transform="rotate(2 540 574)">이레일인포</text>
 
<use href="#mtn" x="30" y="584"/><text class="wm" x="65" y="606" transform="rotate(-2 65 606)">eRailInfo</text>
<use href="#sig" x="220" y="586"/><text class="wm2" x="250" y="606" transform="rotate(3 250 606)">إي ريل إينفو</text>
<use href="#pin" x="400" y="586"/><text class="wm" x="430" y="606" transform="rotate(-2 430 606)">eRailInfo</text>
<use href="#tun" x="580" y="584"/>
 
<text class="wm2" x="10" y="638" transform="rotate(2 10 638)">е-рейл-инфо</text>
<use href="#cld" x="150" y="618"/><text class="wm" x="200" y="640" transform="rotate(-3 200 640)">eRailInfo</text>
<use href="#tree" x="350" y="620"/><text class="wm2" x="380" y="640" transform="rotate(2 380 640)">ரயில்-தகவல்</text>
<use href="#brg" x="500" y="618"/><text class="wm" x="10" y="670" transform="rotate(-2 10 670)">eRailInfo</text>
 
<use href="#trk" x="150" y="650"/><text class="wm2" x="210" y="668" transform="rotate(3 210 668)">e-Bahninfo</text>
<use href="#mtn" x="360" y="646"/><text class="wm" x="395" y="668" transform="rotate(-2 395 668)">eRailInfo</text>
<use href="#sig" x="500" y="648"/><text class="wm2" x="530" y="668" transform="rotate(2 530 668)">ই-রেল-ইনফো</text>
<use href="#pin" x="630" y="648"/>
 
<text class="wm" x="10" y="702" transform="rotate(-3 10 702)">eRailInfo</text>
<use href="#tun" x="120" y="682"/><text class="wm2" x="170" y="704" transform="rotate(2 170 704)">อีเรลอินโฟ</text>
<use href="#cld" x="320" y="682"/><text class="wm" x="370" y="704" transform="rotate(-2 370 704)">eRailInfo</text>
<use href="#tree" x="500" y="684"/><text class="wm2" x="530" y="704" transform="rotate(3 530 704)">이레일인포</text>
 
<use href="#brg" x="30" y="714"/><text class="wm" x="80" y="734" transform="rotate(-2 80 734)">eRailInfo</text>
<use href="#trk" x="220" y="716"/><text class="wm2" x="280" y="734" transform="rotate(2 280 734)">ای‌ریل‌اینفو</text>
<use href="#mtn" x="430" y="712"/><text class="wm" x="465" y="734" transform="rotate(-3 465 734)">eRailInfo</text>
<use href="#sig" x="580" y="714"/>
 
<text class="wm2" x="10" y="766" transform="rotate(2 10 766)">铁路通</text>
<use href="#pin" x="180" y="746"/><text class="wm" x="215" y="768" transform="rotate(-2 215 768)">eRailInfo</text>
<use href="#tun" x="370" y="744"/><text class="wm2" x="420" y="768" transform="rotate(3 420 768)">इ-रेल-इन्फो</text>
<use href="#cld" x="560" y="746"/><text class="wm" x="10" y="798" transform="rotate(-2 10 798)">eRailInfo</text>
 
<use href="#tree" x="140" y="778"/><text class="wm2" x="170" y="798" transform="rotate(2 170 798)">е-рейл-инфо</text>
<use href="#brg" x="320" y="778"/><text class="wm" x="370" y="798" transform="rotate(-3 370 798)">eRailInfo</text>
<use href="#trk" x="480" y="780"/><text class="wm2" x="540" y="798" transform="rotate(2 540 798)">إي ريل إينفو</text>
 
<use href="#mtn" x="30" y="808"/><text class="wm" x="65" y="830" transform="rotate(-2 65 830)">eRailInfo</text>
<use href="#sig" x="220" y="810"/><text class="wm2" x="250" y="830" transform="rotate(3 250 830)">이레일인포</text>
<use href="#pin" x="400" y="810"/><text class="wm" x="430" y="830" transform="rotate(-2 430 830)">eRailInfo</text>
<use href="#tun" x="580" y="808"/>
 
<text class="wm2" x="10" y="862" transform="rotate(2 10 862)">demiryolu-bilgi</text>
<use href="#cld" x="150" y="842"/><text class="wm" x="200" y="864" transform="rotate(-3 200 864)">eRailInfo</text>
<use href="#tree" x="350" y="844"/><text class="wm2" x="380" y="864" transform="rotate(2 380 864)">ரயில்-தகவல்</text>
<use href="#brg" x="500" y="842"/><text class="wm" x="10" y="894" transform="rotate(-2 10 894)">eRailInfo</text>
 
<use href="#trk" x="150" y="874"/><text class="wm2" x="210" y="892" transform="rotate(3 210 892)">ई-रेल-इन्फो</text>
<use href="#mtn" x="360" y="870"/><text class="wm" x="395" y="892" transform="rotate(-2 395 892)">eRailInfo</text>
<use href="#sig" x="500" y="872"/><text class="wm2" x="530" y="892" transform="rotate(2 530 892)">อีเรลอินโฟ</text>
<use href="#pin" x="630" y="872"/>
 
<text class="wm" x="10" y="926" transform="rotate(-3 10 926)">eRailInfo</text>
<use href="#tun" x="120" y="906"/><text class="wm2" x="170" y="928" transform="rotate(2 170 928)">ای‌ریل‌اینفو</text>
<use href="#cld" x="320" y="906"/><text class="wm" x="370" y="928" transform="rotate(-2 370 928)">eRailInfo</text>
<use href="#tree" x="500" y="908"/><text class="wm2" x="530" y="928" transform="rotate(3 530 928)">eRailInfo</text>
 
<use href="#brg" x="30" y="938"/><text class="wm" x="80" y="958" transform="rotate(-2 80 958)">eRailInfo</text>
<use href="#trk" x="220" y="940"/><text class="wm2" x="280" y="958" transform="rotate(2 280 958)">이레일인포</text>
<use href="#mtn" x="430" y="936"/><text class="wm" x="465" y="958" transform="rotate(-3 465 958)">eRailInfo</text>
<use href="#sig" x="580" y="938"/>
 
<text class="wm2" x="10" y="990" transform="rotate(2 10 990)">铁路通</text>
<use href="#pin" x="180" y="970"/><text class="wm" x="215" y="992" transform="rotate(-2 215 992)">eRailInfo</text>
<use href="#tun" x="370" y="968"/><text class="wm2" x="420" y="992" transform="rotate(3 420 992)">इ-रेल-इन्फो</text>
<use href="#cld" x="560" y="970"/>
</svg>
 
